<svg xmlns="http://www.w3.org/2000/svg" viewBox="0 0 512 512" role="img" aria-labelledby="title desc">
    <title id="title">C64 Commander icon</title>
    <desc id="desc">Rounded blue square with stylized C64 initials.</desc>
    <defs>
        <linearGradient id="bg" x1="0" x2="1" y1="0" y2="1">
            <stop offset="0%" stop-color="#8194CC" />
            <stop offset="100%" stop-color="#4B5F9B" />
        </linearGradient>
    </defs>
    <rect width="512" height="512" rx="112" fill="url(#bg)" />
    <rect x="70" y="70" width="372" height="372" rx="84" fill="#111827" fill-opacity="0.14" />
    <path d="M166 323c-39 0-69-29-69-67 0-39 31-69 72-69 21 0 39 7 53 20l-22 26c-9-8-19-12-31-12-22 0-38 16-38 35 0 20 15 35 37 35 13 0 24-5 33-13l22 24c-15 14-35 21-57 21Z" fill="#F7F5EF" />
    <path d="M261 322V190h35v102h52v30H261Z" fill="#F7F5EF" />
    <path d="M371 323V189h34l61 79v-79h34v134h-32l-63-82v82h-34Z" fill="#F7F5EF" />
</svg>
