<?xml version="1.0" encoding="UTF-8" standalone="no"?>
<!-- Created with Inkscape (http://www.inkscape.org/) -->

<svg
   version="1.1"
   id="svg48"
   width="893"
   height="357"
   viewBox="0 0 893 357"
   xmlns="http://www.w3.org/2000/svg"
   xmlns:svg="http://www.w3.org/2000/svg">
  <defs
     id="defs52" />
  <g
     id="g54">
    <path
       style="fill:#000000"
       d="m 115.84683,313.07999 c -13.6441,2.11051 -26.082374,-6.92326 -21.447433,-21.15951 -12.089977,3.16807 -24.201366,-15.45502 -24.112126,-37.18059 -5.590193,-22.67118 36.692419,-2.34686 52.394109,-9.47205 235.04168,0.39646 470.08757,-0.19664 705.12698,0.45771 11.98393,7.71202 0.96823,50.99504 -21.7482,47.85837 -9.28003,29.83929 -47.45464,15.92224 -70.99228,19.29505 -206.40368,0.55575 -412.82201,1.28105 -619.22105,0.20102 z M 80.930161,286.99186 c -1.277472,-1.79373 -1.277472,1.79373 0,0 z m 8,-79.41694 c 241.655679,-1.80813 483.340609,0.38146 724.999999,-1.26628 -17.05464,2.27661 -53.855,0.95922 -77.96894,1.59719 -215.67118,0.57469 -431.37528,1.67772 -647.031059,-0.33091 z m -1.651249,-5.59257 c 15.290368,-39.79902 26.885748,-81.21939 44.649868,-119.945678 7.93445,-1.644475 34.70476,-4.822646 24.62849,0.973283 11.56435,1.194403 37.32214,-9.269648 38.61629,1.412101 13.07352,-11.2139 31.54523,0.925953 35.46442,-2.754334 15.92904,-4.980428 30.85005,0.793512 30.6909,0.631756 25.65593,-4.063272 33.88254,1.558241 58.80767,-2.212308 124.15719,-0.265048 248.32523,-0.436289 372.47561,0.753357 -15.69428,4.817906 -60.93151,-11.06825 -42.13041,18.788798 5.89741,16.000785 6.39033,30.725715 -0.22972,38.683695 3.32415,18.40329 16.96759,45.53283 -13.36021,37.04395 -39.35059,1.54499 -79.28584,-2.83702 -118.2492,2.94251 -3.93008,28.98997 -43.00744,16.69417 -65.54017,19.97685 -83.54023,0.10801 -167.10162,0.83532 -250.63038,-0.51385 -12.84806,-1.76493 12.2905,-29.83758 -12.12455,-22.15176 -27.14026,-0.43101 -54.31689,0.43789 -81.43328,-0.86886 4.4989,-27.50497 20.8291,-47.37877 32.23563,-70.3719 C 150.885,90.917037 145.51442,69.803784 130.45434,87.127691 114.60657,125.90422 102.28952,166.05321 86.797951,204.98235 Z M 211.59683,176.82519 c -2.9047,-1.51744 -0.31427,2.14598 0,0 z m -4,-2 c -2.14598,0.31427 1.51744,2.9047 0,0 z m 10.97619,-15.83333 c -9.67473,-2.87574 2.76273,9.14319 0,0 z m 2.35714,4 c -1.27747,-1.79373 -1.27747,1.79373 0,0 z m 32.13497,-3.80948 c -12.272,-3.56797 3.05945,10.96063 0,0 z m 68.61503,3.43704 c 4.67246,-8.03508 -10.49513,-1.4522 -1.75,-0.87245 z m 26.25,-0.62756 c -4.03878,-6.04498 -3.53498,5.84009 0,0 z m 6,1 c -1.27747,-1.79373 -1.27747,1.79373 0,0 z m 27.68933,-4.25 c -1.6085,1.48708 1.55624,7.74545 0,0 z m 7.81067,1.75 c 8.25864,-10.77851 -12.15595,10.97219 0,0 z m 27.5,0 c -2.71845,-10.418 -1.634,10.43236 0,0 z m 6.30423,-0.005 c -12.98786,-10.96083 8.72752,10.54801 0,0 z m -212.30423,0.0364 c -5.51392,-4.37859 -4.89362,1.7418 0,0 z m 29,0.46862 c -1.27747,-1.79373 -1.27747,1.79373 0,0 z m 1.66228,-2.75 c -1.75023,0.99942 1.62308,5.50683 0,0 z m 47.33772,2 c -9.25232,-2.79353 -9.25232,2.79353 0,0 z m -84,-0.25 c -1.27747,-1.79373 -1.27747,1.79373 0,0 z m 74,-1 c -4.03878,-6.04498 -3.53498,5.84009 0,0 z m 31.36163,0 c -1.83874,-5.60052 -5.56554,5.2686 0,0 z m 34.63837,0 c -5.04998,-6.04615 -5.0017,5.87326 0,0 z m 9.36163,0 c -0.86541,-5.2821 -2.37355,5.24699 0,0 z m -149.36163,-1 c -1.27747,-1.79373 -1.27747,1.79373 0,0 z m 6,0 c -1.27747,-1.79373 -1.27747,1.79373 0,0 z m 4,0 c -1.27747,-1.79373 -1.27747,1.79373 0,0 z m 30,0 c -1.27747,-1.79373 -1.27747,1.79373 0,0 z m 4,0 c -1.27747,-1.79373 -1.27747,1.79373 0,0 z m 6,0 c -1.27747,-1.79373 -1.27747,1.79373 0,0 z m 19,0 c -1.27747,-1.79373 -1.27747,1.79373 0,0 z m 9,0 c -1.27747,-1.79373 -1.27747,1.79373 0,0 z m 6,0 c -1.27747,-1.79373 -1.27747,1.79373 0,0 z m 25,0 c -1.27747,-1.79373 -1.27747,1.79373 0,0 z m 34,0 c -1.27747,-1.79373 -1.27747,1.79373 0,0 z m 4,0 c -1.27747,-1.79373 -1.27747,1.79373 0,0 z m 6,0 c -1.27747,-1.79373 -1.27747,1.79373 0,0 z m 28,0 c -1.27747,-1.79373 -1.27747,1.79373 0,0 z m 25,0 c -1.27747,-1.79373 -1.27747,1.79373 0,0 z m 15,0 c -1.27747,-1.79373 -1.27747,1.79373 0,0 z m 26.66667,-5.16667 c -2.9047,-1.51744 -0.31427,2.14598 0,0 z m 34.33333,0.16667 c -1.27747,-1.79373 -1.27747,1.79373 0,0 z m 34.55887,-0.9682 c 4.00593,-5.64754 -9.07313,5.79381 0,0 z m 86.24778,0.20117 c -6.38916,-9.72902 -1.05799,0.85334 -5.96732,-0.47868 1.61132,1.24798 4.24426,2.0462 5.96732,0.47868 z m 35.00519,-0.47149 c -4.39049,1.37345 -7.21931,-9.6907 -6.85981,-0.26153 0.52852,2.29224 6.44012,3.52695 6.85981,0.26153 z m -511.12694,-0.38068 c 4.39683,-6.93086 -17.51227,3.36399 0,0 z m -3.8724,-0.56391 c 5.59053,-0.8633 -1.71937,1.71436 0,0 z m 33.11361,0.27214 c 0.15509,-8.7397 -6.94532,5.77991 0,0 z m 6.07389,0.34754 c 10.40046,-3.35433 -10.81003,1.9006 0,0 z m 6,-1.0546 c -3.4706,-1.72386 -1.65009,4.66873 0,0 z m 6.62657,-0.0868 c -4.24328,-3.27557 -5.61978,5.46564 0,0 z m 5.87343,0.20483 c 3.38623,-7.68738 -7.31261,6.15762 0,0 z m 30.18221,1.34888 c 6.29514,-9.69948 -9.45392,2.61211 0,0 z m 34.82647,-0.17354 c 2.07691,-8.03457 -10.55283,3.25887 0,0 z m 32.22908,0.13298 c 4.3092,-5.50144 -4.85236,0.004 0,0 z m 35.76224,-1.30832 c 1.74878,-4.70016 -10.40128,3.99442 0,0 z m 34,0 c -6.08012,-7.53567 -5.81842,7.35925 0,0 z m -2.5,-0.5 c 1.27747,-1.79373 1.27747,1.79373 0,0 z m 33.07895,1.25 c 12.28091,4.01027 -4.65817,-7.67665 0,0 z m 38.92056,-1 c -5.67706,-4.49001 -11.81095,5.38154 0,0 z m 128.92012,-0.79967 c -6.87589,-2.16872 3.8191,6.33073 0,0 z m 5.68454,0.3205 c -4.88899,-0.0236 2.72503,5.17529 0,0 z m 2.07894,0.54167 c -1.71452,-1.71931 0.86336,5.59056 0,0 z m 4.50022,-0.0292 c -3.55101,-2.14632 2.48744,5.18789 0,0 z m 5.90208,0.76946 c 1.90833,-5.23829 -7.84056,2.6685 0,0 z m 6.19977,-2.39119 c -5.98722,0.49624 3.96042,5.71656 0,0 z m 23.95859,2.17404 c -2.81416,-6.0461 -3.0305,2.96523 0,0 z m 14.75623,-0.16894 c -2.37261,-5.15888 -5.96338,3.67787 0,0 z m 18.7381,-0.85715 c -7.56203,-3.53268 3.89423,5.32511 0,0 z m 14.64776,0.25362 c -5.37847,-3.90934 -2.87018,5.28852 0,0 z m -193.38586,-0.56314 c -1.42948,-4.82987 -3.44225,2.97228 3e-5,0 z m 32.41247,0.39522 c 3.2968,-5.6551 -6.29296,1.61464 0,0 z m 34.58753,-1.95424 c -3.9531,-5.89856 -2.37755,6.33711 0,0 z m -2,0.059 c 1.27747,-1.79373 1.27747,1.79373 0,0 z m -322,-4 c -1.27747,-1.79373 -1.27747,1.79373 0,0 z m 10.82673,-1.62563 c -3.56315,-10.93604 -8.13706,6.7754 0,0 z m 22.17327,0.12565 c -4.08309,-6.98201 -0.76846,5.67322 0,0 z m 36,0.5 c -4.03878,-6.04498 -3.53498,5.84009 0,0 z m 31,0 c -4.45813,-5.51476 -3.08372,4.75492 0,0 z m 30.70726,-3.73834 c -1.6739,-1.06749 1.32512,10.76238 0,0 z m 10.98207,0.48834 c -1.6085,1.48708 1.55624,7.74545 0,0 z m 23.31067,1.19098 c -3.17582,-11.04289 -1.01964,12.34182 0,0 z m 34,0.059 c -2.29951,-12.15766 -2.29951,12.15766 0,0 z m 35,0.60699 c -4.95668,-12.99268 -4.29379,10.7716 0,0 z m 36,-0.10697 c -2.32662,-10.39909 -2.32662,10.39909 0,0 z m 9.38817,2.18094 c -9.66503,-7.71353 -7.88947,2.57329 0,0 z m -235.58817,-1.38094 c 3.26976,-9.20256 -11.36762,2.00135 0,0 z m -41.8,-1.40699 c -4.00798,-1.77513 -3.90414,3.2606 0,0 z m 105,1.10699 c -1.27747,-1.79373 -1.27747,1.79373 0,0 z m 4.25,-0.16228 c -5.50683,-1.62308 -0.99942,1.75023 0,0 z m 100.5,-1.02705 c -9.04617,-6.18678 3.73329,3.26062 0,0 z m 30.79112,-0.3772 c 1.30906,-4.98428 -4.5169,4.27195 0,0 z M 274.69182,139.8048 c -8.56121,-0.41193 -2.68191,1.21679 0,0 z m -71.76166,-0.81292 c -1.27747,-1.79373 -1.27747,1.79373 0,0 z m 6,0.059 c -2.15651,-3.71199 -2.09735,1.18553 0,0 z m 134,-0.059 c -1.27747,-1.79373 -1.27747,1.79373 0,0 z m 31,0 c -1.27747,-1.79373 -1.27747,1.79373 0,0 z m 36,0.059 c -2.15651,-3.71199 -2.09735,1.18553 0,0 z m 67,0 c -2.15651,-3.71199 -2.09735,1.18553 0,0 z m -202,-1.059 c -1.27747,-1.79373 -1.27747,1.79373 0,0 z m 34,0 c -1.27747,-1.79373 -1.27747,1.79373 0,0 z m 67,0 c -1.27747,-1.79373 -1.27747,1.79373 0,0 z m -246.22917,-6.3125 c -2.25252,-4.63911 -4.05014,5.40728 0,0 z m 5.22917,-0.2631 c -4.15017,-1.68572 -3.82346,4.65631 0,0 z m 4,1.0756 c -3.90318,-3.65313 -3.90318,3.65313 0,0 z m 4.62877,-1.70456 c -5.34951,-0.81234 -4.16661,5.71945 0,0 z m 18.73506,1.2103 c -4.41338,-3.27859 -0.30386,4.61844 0,0 z m 5.13617,0.49426 c -1.35445,-4.04884 -5.40696,4.25414 0,0 z m 4,0 c -1.00176,-3.52086 -4.1779,3.45953 0,0 z m 5.22877,-1.60456 c -5.82979,-0.14053 -3.98928,4.74807 0,0 z m 326.27123,1.60456 c -2.55494,-3.58745 -2.55494,3.58745 0,0 z m 33,0 c -2.55494,-3.58745 -2.55494,3.58745 0,0 z m -331,-2.06688 c -2.1841,-8.04708 -11.03059,9.63726 0,0 z m 33,1.06688 c -4.1777,-2.65051 -6.16419,3.69947 0,0 z m 33.81477,-1.25 c -4.80974,-7.65468 -9.6437,8.3386 0,0 z m -3.81477,0.25 c 2.55494,-3.58745 2.55494,3.58745 0,0 z m 34.93939,-0.0375 c 7.62123,-16.12624 -6.46645,7.45816 0,0 z m 35.06061,-0.032 c -4.9437,-6.94321 -6.36315,7.54675 0,0 z m -3,0.0695 c 2.46629,-3.56228 1.20936,3.65615 0,0 z m 33,0 c -2.41393,-6.95128 -2.41393,6.95128 0,0 z m 3.575,-1.75834 c -4.64021,-0.005 0.21086,6.87178 0,0 z m 33.23811,1.50834 c -1.39756,-3.73551 -7.95719,6.66146 0,0 z m 32.09018,1.15376 c 2.17662,-8.00176 -10.1959,3.16342 0,0 z m 32.84671,0.40691 c -5.83648,-8.54365 -4.16959,4.18423 0,0 z m 102.25,-0.13748 c -4.39613,0.0944 -4.39053,-7.15065 -6.45358,0.14732 1.85921,0.46526 4.9683,2.03521 6.45358,-0.14732 z m 35,-0.87124 c -6.13213,-8.58612 -3.91975,6.0872 0,0 z m 4.28975,-0.30195 c -5.75532,-7.14147 -1.48921,6.88307 0,0 z m 5,0 c -2.46809,-8.74126 -3.7324,7.41831 0,0 z m 5.63996,-0.25 c -1.67925,-3.79138 -6.89145,4.60236 0,0 z m 5.07029,0.55195 c -6.21172,-8.74778 -3.38091,5.99907 0,0 z m 6,-0.2391 c -6.00995,-7.22197 -5.43299,5.73119 0,0 z m -494.01531,-2.91984 c -1.34603,-4.19763 -5.67591,6.60232 0,0 z m 98.51531,1.85699 c 4.05212,-3.54702 -9.24077,2.74062 0,0 z m 264.60789,-0.93332 c -1.514,-2.03737 -0.77735,-0.98121 0,0 z m 33.71543,-0.39955 c -1.88527,-6.56543 -4.29686,7.84606 0,0 z m -401.46169,-0.16713 c -1.73667,-5.91499 -6.4918,6.1624 0,0 z m 9.36211,-0.16982 c -3.05531,-4.1637 -4.93373,5.8147 0,0 z m 21.27626,0.16982 c -4.03878,-6.04498 -3.53498,5.84009 0,0 z m 9.25,0.60715 c 1.4749,-6.30904 -17.40698,2.78395 0,0 z m 4.30931,-3.01119 c -15.66908,-1.25292 -6.53086,-2.05313 -2.55931,2.61833 -0.37614,3.45494 3.51494,-1.67822 2.55931,-2.61833 z m -34.7914,-0.81049 c -13.45706,-1.51834 -2.49212,1.50525 0,0 z m 64.49584,0.0106 c -11.21616,-1.58351 -2.05171,1.57001 0,0 z m 33,0 c -11.21616,-1.58351 -2.05171,1.57001 0,0 z m 74.39853,-2.54607 c -1.75023,0.99942 1.62308,5.50683 0,0 z m 32.02083,1.0625 c -1.71452,-1.71931 0.86336,5.59056 0,0 z m 143.31689,-0.8125 c -7.83286,-3.32366 -4.35914,2.17861 0,0 z m 33,0.6135 c -8.20254,-2.81374 -6.18602,1.6851 0,0 z m 7,0.003 c -5.27667,-3.08004 -5.28772,1.71624 0,0 z m -337,-1.1165 c -1.27747,-1.79373 -1.27747,1.79373 0,0 z m 11.65681,-1.04804 c -3.18515,-11.54005 -10.03256,6.62285 0,0 z m 21.32788,-1.20196 c -4.50829,-6.28723 -2.38119,7.65478 0,0 z m 6.95206,1.17378 c 0.64455,-3.51374 9.22068,2.95164 -0.51517,-3.35875 -5.47551,1.11219 4.03347,7.85521 0.51517,3.35875 z m 68.81325,0.88689 c -7.74545,-1.55624 -1.48708,1.6085 0,0 z m 28.94299,-3.04164 c -1.71598,-1.16273 1.24026,8.22228 0,0 z m 36.99634,-1.01903 c -1.6085,1.48708 1.55624,7.74545 0,0 z m 32.77634,1.89986 c -4.00241,0.20137 -2.58452,4.96459 0,0 z m 24.53433,1.60014 c -6.68802,-5.12441 -8.34935,4.92207 0,0 z m 5.54112,-0.68347 c -4.5169,-4.27195 1.30906,4.98428 0,0 z m 27.45888,0.93347 c -7.90872,-3.71108 -7.90872,3.71108 0,0 z m 4,-1 c 13.34608,-10.79741 -8.16475,2.39978 0,0 z m 37,-1 c -11.54184,-10.84534 1.05587,6.9613 0,0 z m 32.68933,-1.75 c -1.6085,1.48708 1.55624,7.74545 0,0 z m 24.31067,2.36658 c -6.85176,-9.96061 -4.92141,4.59904 0,0 z m 33,0.94244 c 6.79794,0.51934 -1.955,-5.24308 0,0 z m -394,-1.28791 c -5.86511,-5.59243 -0.84385,3.48375 0,0 z m 64.75,0.0396 c -7.74545,-1.55624 -1.48708,1.6085 0,0 z m 33,0 c -7.74545,-1.55624 -1.48708,1.6085 0,0 z m 267.25,0.18929 c -1.27747,-1.79373 -1.27747,1.79373 0,0 z m 4.72917,-0.10417 c -3.68154,-1.13412 -1.83703,1.74158 0,0 z m -172.72917,-1.39583 c -6.67989,-6.32861 -8.85106,4.64137 0,0 z m -123.25,-0.68933 c -7.74545,-1.55624 -1.48708,1.6085 0,0 z m 46.25,0.18933 c -1.27747,-1.79373 -1.27747,1.79373 0,0 z m 11.5,-0.5 c -8.90465,-3.37322 -1.88731,2.37867 0,0 z m 32.5,0.21271 c -7.8996,-4.0695 -7.44034,3.17484 0,0 z m 42,-0.71271 c -1.27747,-1.79373 -1.27747,1.79373 0,0 z m -200,-6.41821 c 3.42179,-11.755015 -12.61801,3.40376 0,0 z m -3,-2.08179 c 2.46629,-3.56228 1.20936,3.65615 0,0 z m 32.56598,1.89324 c 15.15481,-4.09547 -9.36618,-4.85183 0,1e-5 z m 33.43402,0.10676 c 7.49676,-7.12078 -9.10419,-0.94744 0,0 z m 32.59725,0.0807 c 7.45963,-3.50903 -6.64863,-4.86684 -1.21522,-0.64344 z m -0.59725,-2.5807 c 1.27747,-1.79373 1.27747,1.79373 0,0 z m 34,0.94098 c 3.10969,-8.75719 -5.61214,4.98784 0,0 z m 33.35761,-0.12685 c 0.82712,-8.53315 -8.58831,6.92148 0,0 z m 32.60721,0.75161 c 5.15792,-9.20943 -12.39899,5.87441 0,0 z m 30.72817,-1.79671 c -1.71598,-1.16273 1.24026,8.22228 0,0 z m 34.12656,0.90264 c -4.47844,-8.45217 -4.18702,8.60569 0,0 z m -2.81955,-0.17167 c 2.55494,-3.58745 2.55494,3.58745 0,0 z m 33.98857,1.27776 c 5.35655,-9.883171 -9.55497,3.922 0,0 z m -0.98857,-1.77776 c 1.27747,-1.79373 1.27747,1.79373 0,0 z m 35.46165,2.1517 c 3.89909,-9.70363 -15.98255,2.58341 0,0 z m -5.46165,-1.1517 c 1.27747,-1.79373 1.27747,1.79373 0,0 z m 68.08466,-2.81534 c -4.19177,1.18215 3.45586,9.02004 0,0 z m 32.55955,2.95189 c -14.81198,-8.61127 -2.94403,5.43919 0,0 z m -5.64421,-1.13655 c 1.27747,-1.79373 1.27747,1.79373 0,0 z m -468,1.5 c 4.61527,-6.33302 -6.37405,2.53726 0,0 z m 8.5,-1 c 2.87866,-7.7873 -8.50274,5.91519 0,0 z m 7.31311,-0.25 c -3.17461,-6.67321 -6.9609,7.72226 0,0 z m 5.49307,1.60644 c -1.82537,-9.706 -4.72426,4.14806 0,0 z m 389.94382,-0.62773 c -2.0996,-7.47219 -11.94421,4.96903 0,0 z m 67.75,0.39373 c -4.64369,-9.14509 -7.28758,4.28208 0,0 z m 4.45475,-0.98947 c 22.29124,6.34148 0.92132,-9.01621 -2.19064,1.78988 0.76254,-0.19932 1.27592,-4.80553 2.19064,-1.78988 z m 1.54525,0.36703 c 1.27747,-1.79373 1.27747,1.79373 0,0 z m 4,-1 c 1.27747,-1.79373 1.27747,1.79373 0,0 z m -477.75,-3.20573 c -9.97647,-1.50397 -1.95145,1.53162 0,0 z m 17.75,-1.46094 c -14.29223,-1.60785 -40.70966,4.6e-4 -11.27129,0.34172 3.47669,-1.2391 8.17629,2.37066 11.27129,-0.34172 z m 32.36756,-0.0476 c -14.68898,-2.43416 -19.63355,1.4478 0,0 z m 31.97746,-0.0357 c -11.75295,-2.4739 -20.05659,1.61665 0,0 z m 33.11758,0.18948 c -11.99618,-2.90944 -8.3626,1.5809 0,0 z m 32.0374,0.0605 c -9.85607,-3.26892 -2.91996,2.22595 0,0 z m 32,0 c -7.86574,-3.535547 -0.70679,2.66247 0,0 z m 33.5,0.5 c -1.27747,-1.79373 -1.27747,1.79373 0,0 z m 32,0 c -1.27747,-1.79373 -1.27747,1.79373 0,0 z m 97,0 c -1.27747,-1.79373 -1.27747,1.79373 0,0 z m -131.27083,-1.10417 c -3.68154,-1.13412 -1.83703,1.74158 0,0 z m 31.9375,-0.0625 c -2.9047,-1.51744 -0.31427,2.14598 0,0 z m 33,0 c -2.9047,-1.51744 -0.31427,2.14598 0,0 z m 11,-2 c -2.14598,0.31427 1.51744,2.9047 0,0 z M 183.08016,99.991862 c -0.84249,-4.42467 -3.41696,5.524338 0,0 z m 4.21568,0.734688 c -2.9482,-9.037739 -3.01656,3.82315 0,0 z m 27.68239,-0.23469 c 4.82159,-7.002314 -8.69558,-0.617323 0,0 z m 5.12916,-2.049513 c -7.46914,-5.182764 6.57663,7.680313 0,0 z m 4.82277,0.549515 c -2.18742,-8.725961 -0.64989,8.710238 0,0 z m 22.602,-2.231334 c -3.59669,-0.182634 -2.65478,8.059192 0,0 z m 0.398,4.231332 c -1.27747,-1.793726 -1.27747,1.79373 0,0 z m 3.66667,-0.16667 c -2.9047,-1.517436 -0.31427,2.14598 0,0 z m 4.83333,-1.902966 c -5.91321,-6.596427 -2.24232,4.236896 0,0 z m 22.16667,1.902966 c -2.9047,-1.517436 -0.31427,2.14598 0,0 z m 5.26304,-3.416661 c -5.01586,-3.002641 -0.13332,8.846751 0,0 z m 3.07029,3.583331 c -1.27747,-1.793726 -1.27747,1.79373 0,0 z m 1.68311,-1.687498 c -1.71452,-1.719307 0.86336,5.590548 0,0 z m 22.91889,-2.543834 c -3.59669,-0.182634 -2.65478,8.059192 0,0 z m 4.89092,3.742782 c -0.74575,-2.338999 -4.2321,3.66687 0,0 z m 4.10908,-3.742782 c -3.59669,-0.182634 -2.65478,8.059192 0,0 z m 0.398,4.231332 c -1.27747,-1.793726 -1.27747,1.79373 0,0 z m 22.98469,-1.249998 c -0.52809,-2.583788 -4.66625,-2.662744 0,0 z m 4.01531,1.249998 c -1.27747,-1.793726 -1.27747,1.79373 0,0 z m 4.68311,-1.687498 c -1.71452,-1.719307 0.86336,5.590548 0,0 z m 22.31689,1.187498 c 0.60641,-11.506634 -2.24514,4.29124 0,0 z m -1,-2.499998 c 1.27747,-1.793726 1.27747,1.793726 0,0 z m 5.24475,1 c -2.18742,-8.725961 -0.64989,8.710238 0,0 z m 5.41905,-0.578328 c 0.0738,-4.444808 -5.39771,6.754436 0,0 z m 23.54909,0.744995 c -2.22072,-8.772519 -1.93103,7.821691 0,0 z m 4.45378,1.666661 c -2.9047,-1.517436 -0.31427,2.14598 0,0 z m 4.33333,0.27366 c -3.01346,-3.29902 -3.04787,1.35749 0,0 z m 58.5,-0.60699 c -1.20937,-3.656149 -2.46629,3.56228 0,0 z m 3.16667,-0.666665 c -2.14598,0.314265 1.51743,2.904685 0,0 z m 27.33333,-1.333333 c -7.1324,-11.711186 -7.00922,11.214018 0,0 z m -3.64286,0.5 c 7.12947,-4.425909 -1.82849,5.438538 0,0 z m 9.64286,1.999998 c -1.27747,-1.793726 -1.27747,1.79373 0,0 z m 22,-0.5 c 1.92744,-13.172153 -4.32272,2.65529 0,0 z m 10.68933,-3.749998 c -1.6085,1.487077 1.55624,7.745448 0,0 z m 25.31067,3.583338 c -8.23883,-4.636807 -7.4033,4.24021 0,0 z m 6.5,-1.833338 c 5.32264,-11.654837 -11.39586,8.518308 0,0 z m -384.92857,0 c -3.213,-5.851786 -2.69296,5.632918 0,0 z m 142.09524,0.333333 c -2.14598,0.314268 1.51743,2.904685 0,0 z m 107.33333,1.166667 c -1.27747,-1.793725 -1.27748,1.793718 0,0 z m 4,0 c -1.27747,-1.793725 -1.27748,1.793718 0,0 z m -194,-1 c -1.27747,-1.793726 -1.27747,1.793728 0,0 z m 35.68311,-1.6875 c -1.71452,-1.719307 0.86336,5.590548 0,0 z m 60.74519,1.4375 c -3.85626,-5.780173 -1.82358,3.300068 0,0 z m 3.25481,-1.4375 c -1.71452,-1.719307 0.86336,5.590548 0,0 z m 61.98356,1.520833 c -2.9047,-1.517433 -0.31427,2.145965 0,0 z m 97.33333,0.166667 c -1.27747,-1.793726 -1.27747,1.793728 0,0 z m 4.25,-0.162281 c -5.50683,-1.623067 -0.99942,1.750219 0,0 z M 278.45662,96.68499 c -4.34969,1.187829 -1.93311,2.830076 0,0 z m 136.14021,0.140205 c -2.14598,0.314268 1.51743,2.904683 0,0 z m 29.631,0.333334 c -1.21825,-5.283676 -2.92469,4.857031 0,0 z m 3.70233,0.833333 c -1.27747,-1.793726 -1.27747,1.793726 0,0 z m 28.29767,-0.833333 c -1.21825,-5.283676 -2.92469,4.857031 0,0 z m -293.631,-0.333334 c -2.9047,-1.517433 -0.31427,2.14597 0,0 z m 39.33333,0.166667 c -1.27747,-1.793726 -1.27747,1.793726 0,0 z m 28.66667,-0.166667 c -2.9047,-1.517433 -0.31427,2.14597 0,0 z m 38.33333,0.166667 c -1.27747,-1.793726 -1.27747,1.793726 0,0 z m 25,0 c -1.27747,-1.793726 -1.27747,1.793726 0,0 z m 34,0 c -1.27747,-1.793726 -1.27747,1.793726 0,0 z m 5,0 c -1.27747,-1.793726 -1.27747,1.793726 0,0 z m 59,0 c -1.27747,-1.793726 -1.27747,1.793726 0,0 z m 28.5,-0.5 c -1.00176,-3.520859 -4.1779,3.459529 0,0 z m 31.89699,0.166667 c -2.50287,-3.104181 -3.71113,3.012108 0,0 z m -24.73032,-0.833334 c -2.9047,-1.517433 -0.31427,2.14597 0,0 z m 32,0 c -2.9047,-1.517433 -0.31427,2.14597 0,0 z m 33,0 c -2.9047,-1.517433 -0.31427,2.14597 0,0 z m 2.33333,0.166667 c -1.27747,-1.793726 -1.27747,1.793726 0,0 z m 27,0 c -1.27747,-1.793726 -1.27747,1.793726 0,0 z m 5,0 c -1.27747,-1.793726 -1.27747,1.793726 0,0 z M 189.96871,86.348698 c 1.45788,-17.059538 -6.31769,16.255702 0,0 z m 31.66205,3.250975 c 1.26003,-11.194313 -8.34873,7.004295 0,0 z m 32.11895,-0.857811 c -1.27314,-8.441313 -8.56051,10.250955 0,0 z m 31.83258,-0.0528 c -3.16499,-7.596521 -6.1342,8.157092 0,0 z m -2.65213,0.3028 c 1.27747,-1.793726 1.27747,1.793726 0,0 z m 34.61346,-0.263388 c -3.68912,-7.808804 -5.51504,9.185252 0,0 z m -2.61346,1.263388 c 1.27747,-1.793726 1.27747,1.793726 0,0 z m 34.81955,-1.260216 c -4.5375,-8.534721 -5.8805,8.684573 0,0 z m -2.81955,1.260216 c 1.27747,-1.793726 1.27747,1.793726 0,0 z m 0,-2 c 1.27747,-1.793726 1.27747,1.793726 0,0 z m 33.60795,1.75 c 0.50755,-9.827325 -5.37849,3.996186 0,0 z m 32.89205,-0.763695 c -5.65666,-8.263072 -4.71399,9.011505 0,0 z m -2.5,1.013695 c 1.27747,-1.793726 1.27747,1.793726 0,0 z m 0,-2 c 1.27747,-1.793726 1.27747,1.793726 0,0 z m 34.81242,1.235492 c -4.62675,-9.486781 -6.91083,8.032565 0,0 z m -2.81242,0.764508 c 1.27747,-1.793726 1.27747,1.793726 0,0 z m 0,-2 c 1.27747,-1.793726 1.27747,1.793726 0,0 z m 34.83004,0.66996 c -3.75811,-8.135812 -7.25225,9.573131 0,0 z m -2.83004,1.33004 c 1.27747,-1.793726 1.27747,1.793726 0,0 z m 0,-2 c 1.27747,-1.793726 1.27747,1.793726 0,0 z m -297.41878,-2 c 1.58204,-14.192523 -16.20613,3.791436 -1.39801,3.036867 z m 31.95437,-0.25 c -5.67799,-19.057792 -15.29237,13.858763 0,0 z m 31.70879,0.25 c -0.6857,-14.009131 -16.97542,4.178365 -1.45407,3.20765 z m 32,0 c -2.19446,-15.165964 -17.47015,5.596886 -1.41815,3.023484 z m 31.1947,1.75 c 2.31323,-18.867987 -17.22357,6.442247 0,0 z m 31.86589,0 c 4.59621,-19.467167 -22.32773,5.351086 0,0 z m 32.2355,-2 c -8.50092,-19.535087 -14.80054,15.821158 0,0 z m 31.70391,0.25 c -5.97816,-19.671623 -16.37118,15.115398 0,0 z m 31.1947,1.75 c 3.8949,-20.529585 -23.38658,6.807122 0,0 z m 32.14584,-1.75 c -0.20597,-16.85724 -17.93772,7.49171 -1.6754,2.988183 z m 31.54903,0 c -5.83279,-19.59032 -14.54358,14.749108 0,0 z m 31.87349,-0.25 c -1.06453,-15.948529 -18.03623,8.817183 -1.85134,2.818191 z m 30.79245,2 c 6.31565,-20.368524 -23.90003,6.540467 0,0 z m 32.2061,-1.5 c -6.62451,-19.592067 -13.49029,14.164838 0,0 z m 8.41959,2.916667 c -5.94083,-4.981047 -1.6583,4.47366 0,0 z m 3.57442,-0.166667 c -4.20489,-6.446313 -3.2166,5.880701 0,0 z m 6,0.559017 c -2.60083,-3.977231 -8.82115,2.239429 0,0 z m 3,-1.027632 c -2.6849,-5.769752 -2.54947,6.265457 0,0 z m 10.78774,-2.531385 c -3.16546,-19.622338 -16.12666,14.320808 0,0 z m 11.21226,3.468615 c -3.94319,-5.819818 -4.75754,3.730117 0,0 z m 3.36163,-0.468615 c -4.27074,-4.828561 -1.10074,5.163215 0,0 z m 4.06667,0.75 c -3.85626,-5.780173 -1.82358,3.300073 0,0 z M 509.76349,87.412915 c -0.59868,-7.914138 -11.60287,4.290165 0,0 z m 64.16667,1.110332 c -0.98581,-4.317099 -6.03878,-4.710725 -2.86133,0.968615 z m -412,-1.904339 c -11.34239,-2.673634 -14.34542,3.145611 0,0 z m 379.25,0.167221 c -9.97647,-1.503969 -1.95145,1.531612 0,0 z m 57.35485,-2.122083 c -3.44626,-8.50468 -1.04265,5.186252 0,0 z m 4.30056,0.07782 c -5.31626,-6.671646 1.33609,6.530673 0,0 z m 30.09459,-0.25 c -5.42251,-7.183774 -3.36723,6.237588 0,0 z m 4,-0.559017 c -3.8965,-5.419313 -2.6663,6.635162 0,0 z m -414,0.05902 c -5.04998,-6.046152 -5.0017,5.873262 0,0 z m 32.32411,0.09777 c -2.04328,-9.511977 -9.12012,6.819224 0,0 z m 31.67589,-0.59777 c -4.81943,-7.390274 -4.51754,7.094532 0,0 z m 33,1 c -7.40961,-9.138494 -9.57743,4.982589 0,0 z m 30.26443,0.402234 c -0.0328,-10.836381 -9.85422,4.12942 0,0 z m 30.73557,-1.461251 c -2.65778,-3.537869 -1.97303,5.358186 0,0 z m 31.30468,0.0019 c -0.15076,-6.279176 -4.38609,7.064437 0,0 z m 32.69532,0.05712 c -2.25016,-6.931523 -1.85492,6.940684 0,0 z m 164,0.559017 c -3.85845,-6.720884 -4.35084,5.150234 0,0 z m 19,-0.618034 c -1.6373,-5.400792 -1.04133,6.428158 0,0 z m 13,0.05902 c -2.63791,-6.922522 -2.66445,6.688716 0,0 z m -352,-0.5 c -1.27747,-1.793726 -1.27747,1.793726 0,0 z m 37,-0.562149 c -5.24298,-3.382336 -5.2713,2.994467 0,0 z m 31,0.06215 c -2.30116,-3.469054 -3.64516,3.848192 0,0 z m 32,-0.5 c -1.27747,-1.793726 -1.27747,1.793726 0,0 z m 32,0 c -1.27747,-1.793726 -1.27747,1.793726 0,0 z m 394,121.499994 c 1.07299,-2.59043 1.07299,2.59043 0,0 z m -1,-3 c 1.07299,-2.59043 1.07299,2.59043 0,0 z m -1.37646,-3.53866 c -2.62237,-7.3194 3.68408,4.68468 0,0 z m -1.62354,-4.46134 c 1.07299,-2.59043 1.07299,2.59043 0,0 z m -1,-3 c 1.07299,-2.59043 1.07299,2.59043 0,0 z m -1,-3 c 1.07299,-2.59043 1.07299,2.59043 0,0 z m -1.37646,-3.53866 c -2.76154,-8.92532 3.64192,5.10979 0,0 z m -1.62354,-4.96134 c 1.27747,-1.79373 1.27747,1.79373 0,0 z m -1,-2.5 c 1.07299,-2.59043 1.07299,2.59043 0,0 z m -102.65553,-1.54471 c -8.03679,-27.10575 -15.89654,-55.05534 -17.68382,-83.268408 9.89573,-14.10549 29.02456,12.440278 46.88531,1.202105 10.5175,27.005803 17.55652,55.305283 26.45404,82.890413 -18.37969,1.49786 -37.31951,1.16099 -55.65553,-0.82411 z m 24.27827,-15.20529 c -4.45507,-5.33956 -2.12741,11.5053 0,0 z m 12.86794,1.66977 c -3.65123,-9.01528 -3.01688,10.49767 0,0 z m -2.15735,1.41356 c 2.9047,-1.51744 0.31427,2.14598 0,0 z m 14.33334,-3 c -2.14598,0.31427 1.51744,2.9047 0,0 z m -1,-3 c -2.14598,0.31427 1.51744,2.9047 0,0 z m -0.66667,-3.69847 c -4.39603,-15.09264 -65.70322,-2.95442 -26.22485,1.29979 8.56362,0.0166 18.19078,2.01106 26.22485,-1.29979 z m -16,-1.13486 c 1.27747,-1.79373 1.27747,1.79373 0,0 z m -14.52606,-10.3647 c -1.72561,-7.3559 -2.24653,8.42114 0,0 z m 13.52606,0.36469 c -3.80279,-8.73518 -3.02961,8.42372 0,0 z m -2,1 c 1.27747,-1.79373 1.27747,1.79373 0,0 z m 0,-2 c 1.27747,-1.79373 1.27747,1.79373 0,0 z m 12.03356,-7.85119 c -3.32165,-17.7229 -64.29525,-4.76584 -27.20299,2.20465 5.83825,-3.59309 30.43196,6.51328 27.20299,-2.20465 z m -29.55962,-12.5135 c -1.72561,-7.3559 -2.24653,8.42114 0,0 z m 12.77688,-0.28417 c -3.95918,-5.18351 -1.2698,8.3796 0,0 z m 11.43229,-5.03864 c -1.71452,-1.71931 0.86336,5.59056 0,0 z m -1.03784,-2.33046 c -2.28568,-9.26975 -19.12379,-18.770296 -20.20569,-10.97438 -11.11917,-3.641327 -8.0438,-4.814665 -19.14653,5.67639 5.52227,13.02256 28.01629,5.18341 39.35222,5.29799 z m 67.35473,60.51796 c 1.07299,-2.59043 1.07299,2.59043 0,0 z m -1.88889,-5.11111 c -3.23953,-12.32229 4.89989,10.47483 0,0 z m -2.11111,-5.88889 c 1.07299,-2.59043 1.07299,2.59043 0,0 z m -1,-3 c 1.07299,-2.59043 1.07299,2.59043 0,0 z m -2.38462,-6.61538 c -4.96156,-17.69411 6.60307,15.86331 0,0 z m -2.61538,-7.38462 c 1.07299,-2.59043 1.07299,2.59043 0,0 z m -5.38889,-15.11111 c -11.33252,-32.586233 7.70228,15.62062 3.39639,9.19841 l -1.56,-4.11045 z M 777.97078,99.764382 C 779.125,72.037454 737.96164,83.986083 736.64425,80.857826 c 26.05583,-6.077886 45.20608,5.236785 46.94427,33.308994 -2.2651,-4.6403 -3.80892,-9.57981 -5.61774,-14.402438 z M 293.09916,57.741889 c 117.51408,-0.130925 235.02877,-0.203196 352.54258,0.09947 -129.60827,0.235851 -259.21982,0.235039 -388.82812,1.2e-5 12.09502,-0.07248 24.19036,-0.07302 36.28554,-0.09948 z m -156.169,-2.250027 c 208.0034,-1.65441 416.04605,-1.247341 624.05859,-0.233766 4.41247,0.952048 -31.32423,0.659118 -43.23345,0.861506 -193.60373,0.284692 -387.23431,1.137831 -580.82514,-0.62774 z m 2,-3 c 12.62324,-3.082913 47.52283,1.032944 16.55902,1 -5.51898,-0.163932 -11.13953,0.327942 -16.55902,-1 z m 39.00894,0.09981 c -8.5779,-5.278533 4.82426,-10.030013 1.43203,-2.12225 11.05678,-7.785024 39.25999,-3.768606 60.28162,-4.803636 34.35832,0.834339 68.99296,-1.426922 103.17307,1.900043 -16.70333,8.629352 -50.0281,3.920817 -73.47756,6.010614 -30.45616,0.228412 -61.00958,1.221882 -91.40916,-0.984771 z m 132.81061,-3.84981 c -10.50642,-7.543784 -65.60239,1.972336 -25.52968,2.902092 8.43651,-0.610573 17.57267,0.227806 25.52968,-2.902092 z m 14.75896,-0.551486 c -7.78032,-7.483174 -16.49394,9.158495 0,0 z m -5.82851,0.639205 c 5.50683,-1.623067 0.99942,1.75022 0,0 z m 17.75,0.662281 c -3.53227,-8.266183 -17.99469,4.761374 0,-2e-6 z m -5.16667,-1.666667 c 2.9047,-1.517433 0.31427,2.14597 0,0 z m -139.33333,0.666667 c 12.76061,-0.07163 -9.06152,-0.01925 0,0 z m 14.99312,0.0037 c 22.04665,1.406843 -17.42919,-3.789697 -5.79051,0.807644 l 5.79051,-0.807661 z m -6.65979,-0.67035 c 2.90473,-1.517399 0.31423,2.145927 0,0 z m 23.51767,0.258756 c 15.25632,3.983202 25.21066,-2.85032 3.42002,-0.618755 -7.71164,-2.598565 -16.25895,3.552581 -3.42002,0.618738 z m 7.149,-0.09211 c 1.27747,-1.793726 1.27747,1.793726 0,0 z m 31.60045,0.337476 c -15.60248,-4.162143 -33.32636,3.50563 0,0 z m -16.60045,-0.337476 c 1.27747,-1.793726 1.27747,1.793726 0,0 z m 96.5,4.5 c 108.3079,-1.523951 216.6921,-1.523951 325,0 -108.28358,1.534192 -216.71619,1.534194 -325,0 z m 326.75,-0.490868 c -12.8741,-9.44864 31.19334,-6.033127 0.94975,-6.872065 -151.81589,-0.599434 -303.63374,-0.609202 -455.44975,-1.080815 171.93073,-0.07006 343.86281,-0.226905 515.79296,0.16502 -12.80601,1.752318 -33.61829,-4.698346 -27.0353,8.275814 -11.21855,1.609858 -23.09422,1.472505 -34.25766,-0.487954 z m 2.25,-3.509132 c -2.52291,-3.834893 -4.28539,3.252066 0,0 z m 19.5,-0.05571 c -18.39144,-3.484578 -25.97047,3.583481 0,0 z m 6.66667,-3.610958 c -2.9047,-1.517434 -0.31427,2.145973 0,0 z m 9.33333,7.666668 c 16.39514,-1.347666 44.30021,-2.017576 54.15625,0.427455 -17.99951,0.642662 -36.24221,1.315739 -54.15625,-0.427455 z m -568,-3 c 12.415,-3.061799 45.27318,0.960407 15.5,1 -5.16628,-0.160989 -10.43904,0.320164 -15.5,-1 z m 206,0 c 106.29815,-1.525739 212.70185,-1.525739 319,0 -106.28727,1.525712 -212.71259,1.525713 -319,0 z m 363,0 c 11.9825,-1.578509 56.72509,-1.785685 47.1011,0.746471 -15.66606,0.100028 -31.53722,1.021543 -47.1011,-0.746471 z m -529,-1 c 4.63518,-3.882641 3.54894,3.479505 0,0 z m -37.99912,-1.75 c 12.99081,-2.289989 46.23546,0.69128 15.4401,0.75 -5.14578,-0.131435 -10.34122,0.151412 -15.4401,-0.75 z m 202.49912,-0.25 c 107.13001,-1.535467 214.36849,-1.519101 321.5,0 -107.12938,1.531042 -214.3701,1.519936 -321.5,0 z m 361.04836,0.07825 c 15.76833,-1.275459 45.42519,-1.242278 53.09387,0.524888 -17.67408,0.476076 -35.46736,0.872628 -53.09387,-0.524888 z"
       id="path218" />
  </g>
</svg>
