<svg xmlns="http://www.w3.org/2000/svg" viewBox="0 0 1200 400" role="img" aria-labelledby="title desc">
    <title id="title">C64 Commander logo</title>
    <desc id="desc">C64 Commander wordmark with a blue rounded-square icon.</desc>
    <defs>
        <linearGradient id="bg" x1="0" x2="1" y1="0" y2="1">
            <stop offset="0%" stop-color="#8194CC" />
            <stop offset="100%" stop-color="#4B5F9B" />
        </linearGradient>
    </defs>
    <rect x="0" y="36" width="328" height="328" rx="72" fill="url(#bg)" />
    <path d="M92 236c-31 0-55-23-55-53 0-31 25-55 58-55 17 0 31 5 42 15l-17 20c-7-6-15-10-24-10-18 0-31 13-31 29 0 15 13 28 29 28 10 0 18-4 27-10l16 18c-12 11-28 18-45 18Z" fill="#F7F5EF" />
    <path d="M174 236V130h28v81h42v25H174Z" fill="#F7F5EF" />
    <path d="M260 236V130h27l48 61v-61h28v106h-25l-50-65v65h-28Z" fill="#F7F5EF" />
    <text x="390" y="182" fill="#EAE5D8" font-family="Verdana, Arial, sans-serif" font-size="92" font-weight="700">C64 Commander</text>
    <text x="390" y="252" fill="#EAE5D8" font-family="Verdana, Arial, sans-serif" font-size="34">Configure and control your Commodore 64 Ultimate</text>
</svg>
