<svg xmlns="http://www.w3.org/2000/svg" viewBox="0 0 1200 400" role="img" aria-labelledby="title desc">
    <title id="title">C64U Controller logo</title>
    <desc id="desc">C64U Controller wordmark with a teal rounded-square icon.</desc>
    <defs>
        <linearGradient id="bg" x1="0" x2="1" y1="0" y2="1">
            <stop offset="0%" stop-color="#4A90B7" />
            <stop offset="100%" stop-color="#184D66" />
        </linearGradient>
    </defs>
    <rect x="0" y="36" width="328" height="328" rx="72" fill="url(#bg)" />
    <path d="M78 131h29v62c0 16 9 26 24 26 16 0 25-10 25-26v-62h29v63c0 34-19 51-54 51s-53-19-53-51v-63Z" fill="#F3F7F8" />
    <path d="M282 245c-36 0-62-24-62-57 0-32 26-57 62-57 18 0 34 6 46 16l-18 20c-8-7-17-10-27-10-19 0-33 13-33 30 0 16 14 29 33 29 10 0 19-3 27-10l18 20c-12 13-28 19-46 19Z" fill="#F3F7F8" />
    <text x="390" y="182" fill="#EAF4F8" font-family="Verdana, Arial, sans-serif" font-size="88" font-weight="700">C64U Controller</text>
    <text x="390" y="252" fill="#EAF4F8" font-family="Verdana, Arial, sans-serif" font-size="34">Control your Commodore 64 Ultimate from one focused shell</text>
</svg>
